<?xml version="1.0" encoding="utf-8"?>

<!-- License Agreement at http://iconmonstr.com/license/ -->

<!DOCTYPE svg PUBLIC "-//W3C//DTD SVG 1.1//EN" "http://www.w3.org/Graphics/SVG/1.1/DTD/svg11.dtd">
<svg version="1.1" xmlns="http://www.w3.org/2000/svg" xmlns:xlink="http://www.w3.org/1999/xlink" x="0px" y="0px"
	 width="512px" height="512px" viewBox="0 0 512 512" enable-background="new 0 0 512 512" xml:space="preserve">
<path id="wrench-6-icon" d="M307.144,373.275c-11.259-11.259-26.847-17.081-42.73-15.976c-28.639,1.992-57.95-7.953-79.842-29.846
	c-28.762-28.762-36.907-70.325-24.451-106.347l65.397,65.397c25.513,1.502,64.961-37.945,63.459-63.458l-65.397-65.399
	c36.021-12.456,77.584-4.311,106.346,24.451c21.893,21.893,31.839,51.204,29.847,79.842c-1.104,15.869,4.728,31.482,15.976,42.73
	l57.067,57.067C451.341,330.826,462,294.66,462,256c0-113.771-92.229-206-206-206C142.229,50,50,142.229,50,256s92.229,206,206,206
	c39.947,0,77.229-11.383,108.806-31.063L307.144,373.275z"/>
</svg>
